inDegrees=no
num_controls=7
num_derivatives=13
num_iterations=137
num_multipliers=7
num_parameters=0
num_slacks=7
num_states=26
objective=0.443461
objective_accelerations=0.060269
objective_balance=0.003884
objective_effort=0.024567
objective_height=0.349238
objective_ligament=0.005504
solver_duration=2022.562168
status=Solve_Succeeded
success=true
DataType=double
version=3
OpenSimVersion=4.5
endheader
time	/jointset/ground_pelvis/pelvis_tilt/value	/jointset/ground_pelvis/pelvis_tx/value	/jointset/ground_pelvis/pelvis_ty/value	/jointset/hip_l/hip_flexion_l/value	/jointset/hip_l/hip_adduction_l/value	/jointset/hip_l/hip_rotation_l/value	/jointset/back/lumbar_extension/value	/jointset/patellofemoral_l/patellar_flexion_l/value	/jointset/knee_l/knee_flexion_l/value	/jointset/knee_l/knee_adduction_l/value	/jointset/knee_l/knee_rotation_l/value	/jointset/ankle_l/ankle_angle_l/value	/jointset/subtalar_l/subtalar_angle_l/value	/jointset/ground_pelvis/pelvis_tilt/speed	/jointset/ground_pelvis/pelvis_tx/speed	/jointset/ground_pelvis/pelvis_ty/speed	/jointset/hip_l/hip_flexion_l/speed	/jointset/hip_l/hip_adduction_l/speed	/jointset/hip_l/hip_rotation_l/speed	/jointset/back/lumbar_extension/speed	/jointset/patellofemoral_l/patellar_flexion_l/speed	/jointset/knee_l/knee_flexion_l/speed	/jointset/knee_l/knee_adduction_l/speed	/jointset/knee_l/knee_rotation_l/speed	/jointset/ankle_l/ankle_angle_l/speed	/jointset/subtalar_l/subtalar_angle_l/speed	/forceset/tau_hip_flexion_l	/forceset/tau_hip_adduction_l	/forceset/tau_hip_rotation_l	/forceset/tau_knee_flexion_l	/forceset/tau_ankle_angle_l	/forceset/tau_subtalar_angle_l	/forceset/tau_lumbar_extension	lambda_cid13_p0	lambda_cid13_p1	lambda_cid13_p2	lambda_cid13_p3	lambda_cid13_p4	lambda_cid13_p5	lambda_cid14_p0	/jointset/ground_pelvis/pelvis_tilt/accel	/jointset/ground_pelvis/pelvis_tx/accel	/jointset/ground_pelvis/pelvis_ty/accel	/jointset/hip_l/hip_flexion_l/accel	/jointset/hip_l/hip_adduction_l/accel	/jointset/hip_l/hip_rotation_l/accel	/jointset/back/lumbar_extension/accel	/jointset/patellofemoral_l/patellar_flexion_l/accel	/jointset/knee_l/knee_flexion_l/accel	/jointset/knee_l/knee_adduction_l/accel	/jointset/knee_l/knee_rotation_l/accel	/jointset/ankle_l/ankle_angle_l/accel	/jointset/subtalar_l/subtalar_angle_l/accel	gamma_cid13_p0	gamma_cid13_p1	gamma_cid13_p2	gamma_cid13_p3	gamma_cid13_p4	gamma_cid13_p5	gamma_cid14_p0
1	-0.5883520063238146	-0.09732468839684262	0.5511374994863498	1.939992140768122	-0.4638171081861399	0.02376559056035157	-0.2617946798149881	1.418682955830524	1.418682955830066	-0.072159632140001	-0.1745306303713297	0.1932858707485002	-0.02119973946343629	-0.01686613954487807	0.01107688767838701	0.003523993981831294	-0.004235435772965036	-0.002409292234257874	0.003692311637231159	-1.174987408712095e-05	0.00117435576673019	0.001174355766730025	-0.005656006407122996	-1.932946624165689e-05	0.02221309895637187	0.009584416569811946	-0.3583718327308927	0.005828693346849456	0.0008685505760274672	-0.2979050320106294	0.05099153984778852	0.03137060326272773	0.3007580892775943	-24.07458798389396	-9.845599764510993	1.732480165480749	7.660712308359294	-649.4199198647461	-44.14382730351782	-0.796630189576199	1.601929348439983	0.2422471759509313	2.096721005481597	-7.226640083025068	-0.1294655765446155	-2.364258353892854	-0.02178713608041191	-5.41608736567456	-5.416087365674564	-0.6617214658730036	-0.02617384122544432	-0.4812518598985631	-0.3996066641424484	4.713000549532428e-09	1.793442597078883e-08	-1.484017315838066e-08	2.176457024957322e-09	-2.239420697348412e-09	2.460245157071187e-08	2.241634983843694e-09
1.01	-0.5884415573361989	-0.09720186448370759	0.5512774237347109	1.939589778167285	-0.4638466280869933	0.02368320406639982	-0.2617948032091703	1.418423977394386	1.418423977394147	-0.07224660964430621	-0.1745307790442243	0.1934840744262153	-0.0211224771538792	-0.001041187369455348	0.01349117603842782	0.02445627008422572	-0.0762290806871649	-0.003495731549381926	-0.02017223550101935	-1.263898597597164e-05	-0.05296657081763628	-0.05296657081762863	-0.01173955682848076	-1.840492750904778e-05	0.01741929954194627	0.005861739695218159	-0.3582694566889586	0.005929124420940302	0.0008541765531460709	-0.2977509256201706	0.05081701956319223	0.0313961817239745	0.3006869378413297	-24.11673246054007	-9.853555221322571	1.738575427505193	7.59348210919298	-649.269495310975	-44.16347177161798	-0.8005958384519887	1.573207945915188	0.2415119772000522	2.090790425204124	-7.184527930645057	-0.09838899062979345	-2.397953331517633	0.01080369772480793	-5.412572175358683	-5.412572175357508	-0.5816859209551252	0.01203288374554339	-0.4796944162622821	-0.3595476391973947	-4.504728924208052e-09	6.26058377592541e-09	2.225701317579044e-08	7.528869039345261e-10	-1.312251105517097e-08	8.49188101326593e-08	-1.137725966986189e-08
1.02	-0.5883727728680649	-0.09705479922473827	0.5516265326466133	1.938467718870301	-0.4638870435573248	0.02336209201352029	-0.2617949267951769	1.417623694318296	1.417623694318277	-0.07239442547096253	-0.1745311570152455	0.1936340900229765	-0.02108263150108395	0.01480095655883844	0.01592515684524519	0.04536092669005032	-0.1481747750024695	-0.004588406129845483	-0.04405280014832932	-1.178823914750069e-05	-0.1070865722236428	-0.1070865722236273	-0.01782367087735703	-6.518909585902318e-05	0.01257548276561163	0.002101085217442405	-0.358167080647025	0.006029555495030788	0.0008398025302628765	-0.2975968192297119	0.0506424992785959	0.03142176018522083	0.3006157864050646	-24.16376784085585	-9.860498996410778	1.744332140069339	7.54429591022013	-649.1888454289417	-44.16002592493722	-0.8124599297977044	1.605367699014196	0.2461856653062434	2.091197106167632	-7.217049963246009	-0.1307126296125075	-2.367461855704738	-0.02143916433693839	-5.411902330002574	-5.411902330002575	-0.6618341913767019	-0.03571558264194435	-0.4912553322803701	-0.4072021847788306	-1.222924894991611e-08	-1.570959258375386e-09	6.176457315216249e-08	6.277746758094818e-10	-2.280710718788001e-08	1.422754649127461e-07	-2.367412688967347e-08
1.03	-0.5881454285269423	-0.09688324823118957	0.552184467065393	1.936626608024111	-0.4639382562094109	0.02280228908737942	-0.2617950426290318	1.416282432798416	1.416282432797978	-0.07260301918992572	-0.174532055071673	0.1937353695376767	-0.02108040818809876	0.03067528580647715	0.01839296976863989	0.06621309927942864	-0.220022242387409	-0.005637874294568756	-0.06789014577477705	-1.127642054167838e-05	-0.1611508308346478	-0.1611508308346353	-0.02388755392627015	-0.0001015546274222108	0.007667625644314802	-0.001643670914663552	-0.3577234097409863	0.006153125818057563	0.0007991902504938547	-0.2973597355054297	0.0505983527370377	0.03155014309627256	0.3003166092633397	-24.14746925282352	-9.933090177536762	1.771874428806948	7.387182619064597	-648.8042304792762	-44.26625782505327	-0.8324417328210663	1.579567578039284	0.2482683939560947	2.080292112845754	-7.164827044425285	-0.08963363198126684	-2.38924665217365	0.01081167169022633	-5.401445223070332	-5.401445223070668	-0.5775517951778655	0.01436041031954543	-0.4924701884300859	-0.3562099688335555	-1.993853214452179e-08	-9.363295158384706e-09	1.012967287779447e-07	5.159120180201362e-10	-3.247947378767973e-08	1.996019186338343e-07	-3.595750403362899e-08
